<svg width="1442" height="1025" viewBox="0 0 1442 1025" fill="none" xmlns="http://www.w3.org/2000/svg">
<rect width="1441.61" height="1024.12" fill="#FDF8EE"/>
<path d="M902.748 675.507C902.748 677.6 901.138 679.3 899.155 679.3C897.172 679.3 895.561 677.6 895.561 675.507C895.561 673.414 897.172 671.714 899.155 671.714C901.138 671.714 902.748 673.41 902.748 675.507Z" stroke="#4D2C5E" stroke-opacity="0.1" stroke-width="2" stroke-miterlimit="10" stroke-linecap="round" stroke-linejoin="round"/>
<path d="M937.616 708.4C939.6 708.4 941.209 706.702 941.209 704.608C941.209 702.513 939.6 700.815 937.616 700.815C935.631 700.815 934.022 702.513 934.022 704.608C934.022 706.702 935.631 708.4 937.616 708.4Z" stroke="#4D2C5E" stroke-opacity="0.1" stroke-width="2" stroke-miterlimit="10" stroke-linecap="round" stroke-linejoin="round"/>
<path d="M924.086 696.811C928.319 696.811 931.75 693.189 931.75 688.722C931.75 684.255 928.319 680.633 924.086 680.633C919.853 680.633 916.421 684.255 916.421 688.722C916.421 693.189 919.853 696.811 924.086 696.811Z" stroke="#4D2C5E" stroke-opacity="0.1" stroke-width="2" stroke-miterlimit="10" stroke-linecap="round" stroke-linejoin="round"/>
<path d="M937.44 688.722L934.884 693.437L933.528 698.687L928.558 700.113L924.085 702.815L919.613 700.113L914.639 698.687L913.287 693.437L910.727 688.722L913.287 684.002L914.639 678.752L919.613 677.326L924.085 674.624L928.558 677.326L933.528 678.752L934.884 684.002L937.44 688.722Z" stroke="#4D2C5E" stroke-opacity="0.1" stroke-width="2" stroke-miterlimit="10" stroke-linecap="round" stroke-linejoin="round"/>
<path d="M934.022 704.608C934.022 702.515 935.633 700.815 937.616 700.815C938.687 700.815 939.649 701.314 940.306 702.1C943.042 698.409 944.678 693.769 944.678 688.718C944.678 676.713 935.457 666.981 924.081 666.981C912.706 666.981 903.485 676.713 903.485 688.718C903.485 700.723 912.706 710.454 924.081 710.454C928.081 710.454 931.809 709.248 934.967 707.169C934.386 706.493 934.022 705.597 934.022 704.608Z" stroke="#4D2C5E" stroke-opacity="0.1" stroke-width="2" stroke-miterlimit="10" stroke-linecap="round" stroke-linejoin="round"/>
<path d="M924.085 659.308C914.475 659.308 905.999 664.443 900.991 672.253C902.041 672.915 902.748 674.125 902.748 675.511C902.748 677.604 901.137 679.304 899.154 679.304C898.665 679.304 898.2 679.198 897.778 679.013C896.77 682.055 896.217 685.318 896.217 688.722C896.217 704.965 908.697 718.136 924.089 718.136C939.481 718.136 951.961 704.965 951.961 688.722C951.961 672.478 939.477 659.308 924.085 659.308Z" stroke="#4D2C5E" stroke-opacity="0.1" stroke-width="2" stroke-miterlimit="10" stroke-linecap="round" stroke-linejoin="round"/>
<path d="M1007.48 187.32L990.187 181.122C988.359 180.468 987.384 178.373 988.003 176.444C988.622 174.516 990.608 173.486 992.43 174.14L1009.72 180.338C1011.55 180.991 1012.53 183.087 1011.91 185.01C1011.29 186.943 1009.31 187.978 1007.48 187.32Z" stroke="#4D2C5E" stroke-opacity="0.1" stroke-width="3" stroke-miterlimit="10"/>
<path d="M1005.21 194.385L987.914 188.187C986.086 187.534 985.111 185.438 985.73 183.515C986.349 181.587 988.335 180.557 990.162 181.211L1007.45 187.403C1009.28 188.057 1010.26 190.152 1009.64 192.081C1009.01 194.009 1007.03 195.039 1005.21 194.385Z" stroke="#4D2C5E" stroke-opacity="0.1" stroke-width="3" stroke-miterlimit="10"/>
<path d="M989.835 155.08C989.855 155.143 989.87 155.201 989.89 155.263C990.276 156.565 992.554 164.811 991.603 173.962L1010.15 180.421C1014.55 172.473 1021.03 167.283 1022.08 166.478C1022.13 166.442 1022.18 166.405 1022.22 166.369C1022.73 165.987 1023.22 165.579 1023.69 165.146C1026.48 162.601 1028.68 159.251 1029.92 155.289C1033.57 143.625 1027.57 131.046 1016.52 127.194C1005.46 123.343 993.544 129.677 989.895 141.341C988.652 145.308 988.528 149.379 989.34 153.178C989.479 153.816 989.642 154.453 989.835 155.08Z" stroke="#4D2C5E" stroke-opacity="0.1" stroke-width="3" stroke-miterlimit="10"/>
<path d="M988.86 188.616C988.652 192.483 990.91 196.167 994.564 197.442C998.169 198.697 1002.01 197.207 1004.05 194.056L988.86 188.616Z" stroke="#4D2C5E" stroke-opacity="0.1" stroke-width="3" stroke-miterlimit="10"/>
<path d="M997.412 175.88L1002.92 158.252C1003.47 156.517 1002.57 154.646 1000.93 154.072C999.284 153.497 997.511 154.443 996.966 156.178C996.421 157.913 997.318 159.784 998.962 160.358L1005.58 162.663" stroke="#4D2C5E" stroke-opacity="0.1" stroke-width="3" stroke-miterlimit="10"/>
<path d="M1004.68 178.414L1010.19 160.787C1010.74 159.052 1012.51 158.111 1014.15 158.681C1015.8 159.256 1016.69 161.127 1016.15 162.862C1015.61 164.597 1013.83 165.537 1012.19 164.968L1005.57 162.663" stroke="#4D2C5E" stroke-opacity="0.1" stroke-width="3" stroke-miterlimit="10"/>
<path d="M1033.84 161.362L1039.42 163.311" stroke="#4D2C5E" stroke-opacity="0.1" stroke-width="3" stroke-miterlimit="10" stroke-linecap="round"/>
<path d="M1036.4 153.936L1042.22 153.011" stroke="#4D2C5E" stroke-opacity="0.1" stroke-width="3" stroke-miterlimit="10" stroke-linecap="round"/>
<path d="M1029.93 167.732L1034.08 172.133" stroke="#4D2C5E" stroke-opacity="0.1" stroke-width="3" stroke-miterlimit="10" stroke-linecap="round"/>
<path d="M981.956 143.29L976.371 141.346" stroke="#4D2C5E" stroke-opacity="0.1" stroke-width="3" stroke-miterlimit="10" stroke-linecap="round"/>
<path d="M984.091 135.713L979.941 131.312" stroke="#4D2C5E" stroke-opacity="0.1" stroke-width="3" stroke-miterlimit="10" stroke-linecap="round"/>
<path d="M981.506 150.863L975.692 151.788" stroke="#4D2C5E" stroke-opacity="0.1" stroke-width="3" stroke-miterlimit="10" stroke-linecap="round"/>
<path d="M832.488 248.672L781.14 232.485C777.406 231.309 775.286 227.161 776.4 223.22L786.655 186.978C787.769 183.036 791.7 180.799 795.434 181.975L846.782 198.163C850.516 199.339 852.636 203.486 851.522 207.428L841.267 243.67C840.149 247.606 836.218 249.848 832.488 248.672Z" stroke="#4D2C5E" stroke-opacity="0.1" stroke-width="4" stroke-miterlimit="10" stroke-linecap="round"/>
<path d="M777.61 218.934L842.477 239.384" stroke="#4D2C5E" stroke-opacity="0.1" stroke-width="4" stroke-miterlimit="10" stroke-linecap="round"/>
<path d="M810.201 235.098C809.923 236.081 808.939 236.641 808.008 236.347C807.077 236.053 806.546 235.015 806.825 234.033C807.103 233.05 808.087 232.489 809.018 232.783C809.949 233.077 810.48 234.115 810.201 235.098Z" fill="#4D2C5E" fill-opacity="0.5"/>
<path d="M814.091 242.878L799.548 238.294L797.589 245.217L812.132 249.802L814.091 242.878Z" stroke="#4D2C5E" stroke-opacity="0.1" stroke-width="4" stroke-miterlimit="10" stroke-linecap="round"/>
<path d="M792.196 243.914L817.302 251.828" stroke="#4D2C5E" stroke-opacity="0.1" stroke-width="4" stroke-miterlimit="10" stroke-linecap="round"/>
<path d="M1331.63 191.556C1347.73 191.556 1360.78 185.028 1360.78 176.976C1360.78 168.924 1347.73 162.397 1331.63 162.397C1315.54 162.397 1302.49 168.924 1302.49 176.976C1302.49 185.028 1315.54 191.556 1331.63 191.556Z" stroke="#4D2C5E" stroke-opacity="0.1" stroke-width="3" stroke-miterlimit="10" stroke-linecap="round" stroke-linejoin="round"/>
<path d="M1343.42 184.576C1351.79 170.068 1353.29 154.912 1346.78 150.725C1340.26 146.538 1328.19 154.905 1319.82 169.414C1311.45 183.922 1309.95 199.078 1316.46 203.265C1322.98 207.452 1335.05 199.085 1343.42 184.576Z" stroke="#4D2C5E" stroke-opacity="0.1" stroke-width="3" stroke-miterlimit="10" stroke-linecap="round" stroke-linejoin="round"/>
<path d="M1346.77 203.258C1353.29 199.071 1351.78 183.915 1343.41 169.407C1335.04 154.899 1322.98 146.532 1316.46 150.719C1309.94 154.906 1311.45 170.061 1319.82 184.57C1328.19 199.078 1340.25 207.445 1346.77 203.258Z" stroke="#4D2C5E" stroke-opacity="0.1" stroke-width="3" stroke-miterlimit="10" stroke-linecap="round" stroke-linejoin="round"/>
<path d="M1331.63 180.836C1333.65 180.836 1335.29 179.108 1335.29 176.977C1335.29 174.845 1333.65 173.117 1331.63 173.117C1329.61 173.117 1327.98 174.845 1327.98 176.977C1327.98 179.108 1329.61 180.836 1331.63 180.836Z" stroke="#4D2C5E" stroke-opacity="0.1" stroke-width="3" stroke-miterlimit="10" stroke-linecap="round" stroke-linejoin="round"/>
<path d="M1341.89 637.102L1317.82 642.965L1316.74 638.015C1316.49 636.867 1317.16 635.725 1318.25 635.458L1338.38 630.551C1339.47 630.289 1340.55 630.999 1340.8 632.147L1341.89 637.102Z" stroke="#4D2C5E" stroke-opacity="0.1" stroke-width="3" stroke-miterlimit="10" stroke-linecap="round"/>
<path d="M1333.98 610.481C1344.58 601.455 1346.25 585.063 1337.7 573.868C1329.14 562.674 1313.61 560.916 1303 569.942C1292.4 578.968 1290.73 595.36 1299.28 606.554C1307.84 617.749 1323.37 619.507 1333.98 610.481Z" stroke="#4D2C5E" stroke-opacity="0.1" stroke-width="3" stroke-miterlimit="10"/>
<path d="M1329.97 613.247L1306.96 567.184L1304.09 561.595C1289.09 569.938 1283.34 589.533 1291.25 605.362C1299.15 621.191 1317.72 627.257 1332.72 618.913L1329.91 613.285" stroke="#4D2C5E" stroke-opacity="0.1" stroke-width="3" stroke-miterlimit="10" stroke-linecap="round" stroke-linejoin="round"/>
<path d="M1312.03 577.277C1319.57 573.086 1324.54 567.422 1323.14 564.627C1321.75 561.832 1314.51 562.964 1306.98 567.156C1299.44 571.347 1294.47 577.011 1295.87 579.806C1297.26 582.601 1304.5 581.469 1312.03 577.277Z" stroke="#4D2C5E" stroke-opacity="0.1" stroke-width="3" stroke-miterlimit="10"/>
<path d="M1313.8 615.776C1319.12 616.858 1324.81 616.12 1329.97 613.246C1335.13 610.372 1338.93 605.837 1341.09 600.597C1335.77 599.515 1330.08 600.253 1324.92 603.127C1319.75 606.001 1315.96 610.536 1313.8 615.776Z" stroke="#4D2C5E" stroke-opacity="0.1" stroke-width="3" stroke-miterlimit="10"/>
<path d="M1329.99 613.218C1336.02 609.866 1335.75 596.836 1329.39 584.116C1323.04 571.396 1313 563.802 1306.98 567.155C1300.95 570.507 1301.22 583.537 1307.57 596.257C1313.93 608.977 1323.97 616.571 1329.99 613.218Z" stroke="#4D2C5E" stroke-opacity="0.1" stroke-width="3" stroke-miterlimit="10"/>
<path d="M1296.64 602.357L1340.29 578.074" stroke="#4D2C5E" stroke-opacity="0.1" stroke-width="3" stroke-miterlimit="10"/>
<path d="M1325.63 621.749L1328.18 632.961" stroke="#4D2C5E" stroke-opacity="0.1" stroke-width="3" stroke-miterlimit="10"/>
<path d="M1314.93 644.009L1345.61 636.245" stroke="#4D2C5E" stroke-opacity="0.1" stroke-width="3" stroke-miterlimit="10" stroke-linecap="round"/>
<path d="M1358.35 474.532L1371.19 460.982L1335.61 423.436L1322.77 436.986L1358.35 474.532Z" stroke="#4D2C5E" stroke-opacity="0.1" stroke-width="3" stroke-miterlimit="10" stroke-linecap="round" stroke-linejoin="round"/>
<path d="M1374.66 478.198L1371.19 460.979L1358.35 474.53L1374.66 478.198Z" stroke="#4D2C5E" stroke-opacity="0.1" stroke-width="3" stroke-miterlimit="10" stroke-linecap="round" stroke-linejoin="round"/>
<path d="M1373.04 470.164L1367.04 476.486" stroke="#4D2C5E" stroke-opacity="0.1" stroke-width="3" stroke-miterlimit="10" stroke-linecap="round" stroke-linejoin="round"/>
<path d="M1318.99 426.656L1325.82 419.451C1327.48 417.697 1330.17 417.697 1331.83 419.451L1335.61 423.435L1322.77 436.985L1318.99 433.001C1317.33 431.248 1317.33 428.403 1318.99 426.656Z" stroke="#4D2C5E" stroke-opacity="0.1" stroke-width="3" stroke-miterlimit="10" stroke-linecap="round" stroke-linejoin="round"/>
<path d="M1339.08 427.091L1326.24 440.647" stroke="#4D2C5E" stroke-opacity="0.1" stroke-width="3" stroke-miterlimit="10" stroke-linecap="round" stroke-linejoin="round"/>
<path d="M1364.77 467.754L1332.66 433.872" stroke="#4D2C5E" stroke-opacity="0.1" stroke-width="3" stroke-miterlimit="10" stroke-linecap="round" stroke-linejoin="round"/>
<path d="M354.649 638.328L352.353 644.012" stroke="#4D2C5E" stroke-opacity="0.1" stroke-width="4" stroke-miterlimit="10" stroke-linecap="round" stroke-linejoin="round"/>
<path d="M371.802 646.269L369.505 651.953" stroke="#4D2C5E" stroke-opacity="0.1" stroke-width="4" stroke-miterlimit="10" stroke-linecap="round" stroke-linejoin="round"/>
<path d="M388.96 654.206L386.663 659.89" stroke="#4D2C5E" stroke-opacity="0.1" stroke-width="4" stroke-miterlimit="10" stroke-linecap="round" stroke-linejoin="round"/>
<path d="M343.185 633.016L342.037 635.861" stroke="#4D2C5E" stroke-opacity="0.1" stroke-width="4" stroke-miterlimit="10" stroke-linecap="round" stroke-linejoin="round"/>
<path d="M348.925 635.677L347.777 638.512" stroke="#4D2C5E" stroke-opacity="0.1" stroke-width="4" stroke-miterlimit="10" stroke-linecap="round" stroke-linejoin="round"/>
<path d="M360.372 640.969L359.224 643.814" stroke="#4D2C5E" stroke-opacity="0.1" stroke-width="4" stroke-miterlimit="10" stroke-linecap="round" stroke-linejoin="round"/>
<path d="M366.107 643.625L364.964 646.466" stroke="#4D2C5E" stroke-opacity="0.1" stroke-width="4" stroke-miterlimit="10" stroke-linecap="round" stroke-linejoin="round"/>
<path d="M377.558 648.922L376.41 651.766" stroke="#4D2C5E" stroke-opacity="0.1" stroke-width="4" stroke-miterlimit="10" stroke-linecap="round" stroke-linejoin="round"/>
<path d="M394.993 656.992L393.85 659.832" stroke="#4D2C5E" stroke-opacity="0.1" stroke-width="4" stroke-miterlimit="10" stroke-linecap="round" stroke-linejoin="round"/>
<path d="M383.294 651.578L382.151 654.419" stroke="#4D2C5E" stroke-opacity="0.1" stroke-width="4" stroke-miterlimit="10" stroke-linecap="round" stroke-linejoin="round"/>
<path d="M385.826 702.445L328.588 625.794L402.579 660.97L385.826 702.445Z" stroke="#4D2C5E" stroke-opacity="0.1" stroke-width="4" stroke-miterlimit="10" stroke-linecap="round" stroke-linejoin="round"/>
<path d="M382.545 678.406L366.886 657.437L387.125 667.056L382.545 678.406Z" stroke="#4D2C5E" stroke-opacity="0.1" stroke-width="4" stroke-miterlimit="10" stroke-linecap="round" stroke-linejoin="round"/>
<path d="M523.665 143.293L502.315 154.187L544.868 247.065L566.217 236.172L523.665 143.293Z" stroke="#4D2C5E" stroke-opacity="0.1" stroke-width="4" stroke-miterlimit="10" stroke-linecap="round" stroke-linejoin="round"/>
<path d="M528.759 154.439L518.089 159.881" stroke="#4D2C5E" stroke-opacity="0.1" stroke-width="4" stroke-miterlimit="10" stroke-linecap="round" stroke-linejoin="round"/>
<path d="M538.62 175.956L527.943 181.406" stroke="#4D2C5E" stroke-opacity="0.1" stroke-width="4" stroke-miterlimit="10" stroke-linecap="round" stroke-linejoin="round"/>
<path d="M548.481 197.474L537.804 202.923" stroke="#4D2C5E" stroke-opacity="0.1" stroke-width="4" stroke-miterlimit="10" stroke-linecap="round" stroke-linejoin="round"/>
<path d="M558.334 218.999L547.664 224.441" stroke="#4D2C5E" stroke-opacity="0.1" stroke-width="4" stroke-miterlimit="10" stroke-linecap="round" stroke-linejoin="round"/>
<path d="M532.024 161.564L526.689 164.282" stroke="#4D2C5E" stroke-opacity="0.1" stroke-width="4" stroke-miterlimit="10" stroke-linecap="round" stroke-linejoin="round"/>
<path d="M535.318 168.76L529.983 171.485" stroke="#4D2C5E" stroke-opacity="0.1" stroke-width="4" stroke-miterlimit="10" stroke-linecap="round" stroke-linejoin="round"/>
<path d="M541.899 183.121L536.565 185.838" stroke="#4D2C5E" stroke-opacity="0.1" stroke-width="4" stroke-miterlimit="10" stroke-linecap="round" stroke-linejoin="round"/>
<path d="M545.194 190.317L539.859 193.042" stroke="#4D2C5E" stroke-opacity="0.1" stroke-width="4" stroke-miterlimit="10" stroke-linecap="round" stroke-linejoin="round"/>
<path d="M551.775 204.678L546.44 207.395" stroke="#4D2C5E" stroke-opacity="0.1" stroke-width="4" stroke-miterlimit="10" stroke-linecap="round" stroke-linejoin="round"/>
<path d="M555.077 211.874L549.735 214.598" stroke="#4D2C5E" stroke-opacity="0.1" stroke-width="4" stroke-miterlimit="10" stroke-linecap="round" stroke-linejoin="round"/>
<path d="M78.6496 613.603L55.4778 625.09C54.2387 625.709 52.7622 625.145 52.176 623.837L50.6921 620.501C50.1059 619.194 50.6401 617.636 51.8792 617.017L75.051 605.53C76.2901 604.911 77.7667 605.475 78.3528 606.783L79.8368 610.119C80.4229 611.434 79.8887 612.992 78.6496 613.603Z" stroke="#4D2C5E" stroke-opacity="0.1" stroke-width="4" stroke-miterlimit="10" stroke-linecap="round"/>
<path d="M87.6496 639.694L76.3123 614.778L57.9707 624.072L69.3081 648.988L76.4607 690.677C78.8127 695.852 84.6966 698.029 89.5936 695.547L109.397 685.509C114.301 683.026 116.364 676.817 114.012 671.649L87.6496 639.694Z" stroke="#4D2C5E" stroke-opacity="0.1" stroke-width="4" stroke-miterlimit="10" stroke-linecap="round"/>
<path d="M72.5281 667.788C72.5281 667.788 76.3122 661.321 86.3733 661.689C96.4345 662.057 98.1261 652.386 98.1261 652.386" stroke="#4D2C5E" stroke-opacity="0.1" stroke-width="4" stroke-miterlimit="10" stroke-linecap="round"/>
<path d="M110.91 210.603C119.712 210.603 126.848 203.072 126.848 193.783C126.848 184.494 119.712 176.964 110.91 176.964C102.108 176.964 94.9724 184.494 94.9724 193.783C94.9724 203.072 102.108 210.603 110.91 210.603Z" stroke="#4D2C5E" stroke-opacity="0.1" stroke-width="4" stroke-miterlimit="10" stroke-linecap="round" stroke-linejoin="round"/>
<path d="M133.251 227.218C136.771 227.218 139.624 224.207 139.624 220.492C139.624 216.778 136.771 213.766 133.251 213.766C129.731 213.766 126.877 216.778 126.877 220.492C126.877 224.207 129.731 227.218 133.251 227.218Z" stroke="#4D2C5E" stroke-opacity="0.1" stroke-width="4" stroke-miterlimit="10" stroke-linecap="round" stroke-linejoin="round"/>
</svg>
